HIERARCHY
ROOT RootJoint
{
    OFFSET   0.000000   0.000000   0.000000
    CHANNELS 6 Xposition Yposition Zposition Xrotation Yrotation Zrotation
    JOINT pelvis_lowerback
    {
        OFFSET   0.000000   0.093605   0.000000
        CHANNELS 3 Xrotation Yrotation Zrotation
        JOINT lowerback_torso
        {
            OFFSET   0.000000   0.100000   0.000000
            CHANNELS 3 Xrotation Yrotation Zrotation
            JOINT torso_head
            {
                OFFSET   0.000000   0.282350   0.000000
                CHANNELS 3 Xrotation Yrotation Zrotation
                End Site
                {
                    OFFSET   0.000000   0.192650   0.000000
                }
            }
            JOINT rTorso_Clavicle
            {
                OFFSET  -0.001000   0.157500   0.000000
                CHANNELS 3 Xrotation Yrotation Zrotation
                JOINT rShoulder
                {
                    OFFSET  -0.117647   0.000000   0.000000
                    CHANNELS 3 Xrotation Yrotation Zrotation
                    JOINT rElbow
                    {
                        OFFSET  -0.245000   0.000000   0.000000
                        CHANNELS 3 Xrotation Yrotation Zrotation
                        JOINT rWrist
                        {
                            OFFSET  -0.240000   0.000000   0.000000
                            CHANNELS 3 Xrotation Yrotation Zrotation
                            End Site
                            {
                                OFFSET  -0.116353  -0.002500   0.000000
                            }
                        }
                    }
                }
            }
            JOINT lTorso_Clavicle
            {
                OFFSET   0.001000   0.157500   0.000000
                CHANNELS 3 Xrotation Yrotation Zrotation
                JOINT lShoulder
                {
                    OFFSET   0.117647   0.000000   0.000000
                    CHANNELS 3 Xrotation Yrotation Zrotation
                    JOINT lElbow
                    {
                        OFFSET   0.245000   0.000000   0.000000
                        CHANNELS 3 Xrotation Yrotation Zrotation
                        JOINT lWrist
                        {
                            OFFSET   0.240000   0.000000   0.000000
                            CHANNELS 3 Xrotation Yrotation Zrotation
                            End Site
                            {
                                OFFSET   0.116353  -0.002500   0.000000
                            }
                        }
                    }
                }
            }
        }
    }
    JOINT rHip
    {
        OFFSET  -0.100000  -0.051395   0.000000
        CHANNELS 3 Xrotation Yrotation Zrotation
        JOINT rKnee
        {
            OFFSET   0.000000  -0.410000   0.000000
            CHANNELS 3 Xrotation Yrotation Zrotation
            JOINT rAnkle
            {
                OFFSET   0.000000  -0.390000   0.000000
                CHANNELS 3 Xrotation Yrotation Zrotation
                JOINT rToeJoint
                {
                    OFFSET   0.000000  -0.050000   0.130000
                    CHANNELS 3 Xrotation Yrotation Zrotation
                    End Site
                    {
                        OFFSET  -0.010000   0.002000   0.060000
                    }
                }
            }
        }
    }
    JOINT lHip
    {
        OFFSET   0.100000  -0.051395   0.000000
        CHANNELS 3 Xrotation Yrotation Zrotation
        JOINT lKnee
        {
            OFFSET   0.000000  -0.410000   0.000000
            CHANNELS 3 Xrotation Yrotation Zrotation
            JOINT lAnkle
            {
                OFFSET   0.000000  -0.390000   0.000000
                CHANNELS 3 Xrotation Yrotation Zrotation
                JOINT lToeJoint
                {
                    OFFSET   0.000000  -0.050000   0.130000
                    CHANNELS 3 Xrotation Yrotation Zrotation
                    End Site
                    {
                        OFFSET   0.010000   0.002000   0.060000
                    }
                }
            }
        }
    }
}
MOTION
Frames: 17
Frame Time:   0.008333
 -2.376719   0.925631   3.975860   0.000000   0.000000   0.000000   0.000000   0.000000   0.000000   0.000000   0.000000   0.000000   0.000000   0.000000   0.000000   0.000000   0.000000   0.000000   0.000000   0.000000   0.000000   0.000000   0.000000   0.000000   0.000000   0.000000   0.000000   0.000000   0.000000   0.000000   0.000000   0.000000   0.000000   0.000000   0.000000   0.000000   0.000000   0.000000   0.000000   0.000000   0.000000   0.000000   0.000000   0.000000   0.000000   0.000000   0.000000   0.000000   0.000000   0.000000   0.000000   0.000000   0.000000   0.000000   0.000000   0.000000   0.000000   0.000000   0.000000   0.000000   0.000000   0.000000   0.000000
 -2.376761   0.925214   3.974629   0.534734  -0.759090  -0.046140  -0.473099   0.648800   0.122606  -0.011011  -0.372659  -0.179328  -0.267197   0.017018   0.240868   0.098789  -0.337865  -0.432382   0.833912   0.873151   1.874943   0.041401   3.442248  -0.031063  -0.087046  -1.972300  -1.405916  -0.203012   0.518225   0.307562  -1.197865   0.537473  -1.158897   0.010199  -1.225215  -0.014378  -0.236337   0.119191   1.539515  -1.184995   0.300966  -0.104684   2.312689   0.003121  -0.009307  -2.365934  -0.637342   0.347308  -0.366961   0.000558   0.003491  -1.524609   0.378876   0.252104   1.729950  -0.002940  -0.005649  -0.498937  -0.260738  -0.196098  -0.020258  -0.000002   0.000113
 -2.376791   0.924526   3.973419   0.954225  -1.828321  -0.090824  -0.908334   1.443818   0.252357  -0.005906  -0.533609  -0.342429  -0.514559   0.012350   0.464100   0.199670  -0.406543  -0.512620   1.573777   1.972962   3.896634   0.096735   7.062266  -0.054354  -0.143332  -2.793703  -2.385231  -0.403102   1.043448   0.332317  -2.316222   1.079792  -2.451282   0.021583  -2.390647  -0.025055  -0.497529  -0.038247   2.785765  -1.998464   0.571998  -0.348866   4.749941   0.008113  -0.024919  -4.571488  -1.255466   0.652318  -0.797359   0.000230   0.008083  -3.197976   0.717431   0.684119   3.469760  -0.007894  -0.015082  -0.952613  -0.503965  -0.380507  -0.002256  -0.000025  -0.000060
 -2.376765   0.923374   3.972277   1.317150  -3.035596  -0.125049  -1.337836   2.330684   0.393785  -0.010880  -0.521755  -0.480345  -0.752889   0.003336   0.665942   0.296742  -0.292121  -0.356975   2.214017   3.161343   5.948087   0.154329  10.741159  -0.070268  -0.191085  -3.111004  -2.961379  -0.589700   1.533700   0.161990  -3.347957   1.607337  -3.796381   0.031569  -3.482704  -0.032532  -0.744230  -0.254302   3.689311  -2.472249   0.818449  -0.737122   7.132064   0.013539  -0.041080  -6.621718  -1.848034   0.915949  -1.181486  -0.000755   0.011644  -5.002554   1.007698   1.260962   5.052476  -0.013413  -0.023612  -1.376478  -0.729191  -0.553959   0.020198  -0.000076  -0.000262
 -2.376679   0.921611   3.971199   1.644774  -4.281548  -0.147452  -1.759001   3.270692   0.551041  -0.029788  -0.388702  -0.591380  -0.985013  -0.006375   0.850378   0.391225  -0.061144  -0.049953   2.762432   4.384014   7.975213   0.208366  14.454510  -0.081314  -0.234128  -3.174234  -3.236852  -0.763307   1.993130  -0.130857  -4.297544   2.124246  -5.146916   0.039106  -4.502586  -0.037443  -0.978496  -0.472944   4.331658  -2.659036   1.046281  -1.259814   9.435498   0.018736  -0.055231  -8.530146  -2.413260   1.141301  -1.527636  -0.002042   0.014066  -6.924142   1.248564   1.958401   6.463202  -0.018539  -0.029560  -1.774694  -0.937195  -0.717075   0.037915  -0.000124  -0.000384
 -2.376214   0.920027   3.970737   2.065189  -5.475632  -0.136890  -2.331164   4.222601   0.764573  -0.119950  -0.179757  -0.682805  -1.204046  -0.016302   1.017480   0.489098   0.211682   0.396459   3.232925   5.589939   9.965065   0.258140  18.185621  -0.085883  -0.271134  -3.098481  -3.311372  -0.921666   2.453575  -0.567968  -5.166690   2.649622  -6.507381   0.044463  -5.450618  -0.041199  -1.199348  -0.679469   4.783023  -2.649970   1.256977  -1.941598  11.616825   0.023865  -0.065495 -10.305489  -2.950566   1.331970  -1.818744  -0.003333   0.015076  -8.536063   1.696361   2.121512   8.820185  -0.016786  -0.037089  -1.670907  -0.986201  -1.135207  -0.089258  -0.000573   0.000487
 -2.376110   0.919080   3.969888   2.700042  -6.210955  -0.093420  -2.974203   5.026624   0.912742  -0.313797  -0.033190  -0.749298  -1.443491  -0.030835   1.178971   0.600976   0.472031   0.994400   3.640079   6.741996  11.941384   0.303751  21.918743  -0.092357  -0.318577  -2.994327  -3.185966  -1.072535   2.853968  -1.074231  -5.966118   3.142590  -7.838990   0.048024  -6.339413  -0.042998  -1.412838  -0.887107   5.098472  -2.594805   1.438529  -2.663950  13.669739   0.028294  -0.065206 -11.959284  -3.462555   1.485063  -2.065888  -0.004236   0.014309 -10.048827   2.153961   2.274602  10.597416  -0.014877  -0.032720  -2.597916  -0.927919  -1.232120  -0.245159  -0.000566   0.000619
 -2.376340   0.917580   3.968841   3.172355  -6.808516   0.144499  -3.209072   5.679264   0.728488  -0.565730   0.068987  -0.829890  -1.796003  -0.067576   1.303457   0.542074   0.763762   1.196590   4.108686   8.325231  13.774111   0.324235  25.633941  -0.106496  -0.439064  -2.981735  -2.285173  -1.480787   3.342038  -1.036151  -7.673873   3.849179  -8.967294   0.045350  -7.227606  -0.052735  -1.696418  -0.922672   4.813006  -1.690597   1.480805  -3.622849  13.778373   0.023276  -0.052764 -12.158875  -4.108091   1.576275  -2.111305  -0.003735   0.011897 -11.400178   2.433342   2.223657  12.385827  -0.013573  -0.030478  -3.558144  -1.144233  -1.474622  -0.078652  -0.000143  -0.000262
 -2.376861   0.915815   3.967257   3.709873  -7.466016   0.455070  -3.365209   6.383489   0.461984  -0.786591   0.259765  -0.960090  -2.133294  -0.108985   1.402118   0.459381   1.164700   1.215261   4.479154   9.911818  15.353506   0.331446  29.386029  -0.126065  -0.540260  -2.815793  -1.500361  -1.878428   3.787245  -0.785527  -9.274686   4.523160  -9.848275   0.039506  -8.058170  -0.057571  -2.008512  -0.930660   4.722939  -0.816751   1.514416  -4.614724  13.658311   0.018247  -0.041392 -12.344185  -4.712885   1.657124  -2.075785  -0.002771   0.009153 -12.804344   2.699035   2.148253  14.098292  -0.012869  -0.029819  -4.441255  -1.342634  -1.709482   0.077202   0.000135  -0.001016
 -2.377693   0.913923   3.965273   4.283458  -8.101313   0.780959  -3.449855   7.104607   0.166181  -0.963021   0.507525  -1.117464  -2.444791  -0.149030   1.486468   0.352029   1.630715   1.100529   4.764381  11.462220  16.720913   0.332819  33.160706  -0.150132  -0.619750  -2.527866  -0.950362  -2.257322   4.179143  -0.417507 -10.769946   5.147959 -10.557671   0.032600  -8.840685  -0.058902  -2.305998  -0.973775   4.835846   0.021508   1.530407  -5.566779  13.506560   0.014093  -0.032173 -12.519085  -5.278506   1.729732  -2.043250  -0.002026   0.007009 -14.221529   2.937703   2.099703  15.707931  -0.012586  -0.029079  -5.237624  -1.527151  -1.937041  -0.043777  -0.000052  -0.000190
 -2.378863   0.912004   3.962980   4.882734  -8.628330   1.097360  -3.473370   7.810432  -0.148146  -1.100533   0.778777  -1.291403  -2.729690  -0.187568   1.563041   0.221347   2.137067   0.894386   4.975123  12.964437  17.918199   0.330919  36.806228  -0.176024  -0.680873  -2.103944  -0.604945  -2.619361   4.512945   0.015461 -12.168504   5.717878 -11.144283   0.025694  -9.580527  -0.057900  -2.586004  -1.068186   5.082230   0.817698   1.574606  -6.376040  13.280564   0.010593  -0.024747 -12.771421  -5.743591   1.829277  -3.045185  -0.006574   0.012787 -15.635106   3.144462   2.093592  17.192139  -0.012445  -0.027051  -5.970214  -1.700378  -2.151643   0.102514   0.000103  -0.000795
 -2.380286   0.910078   3.960506   5.499634  -9.043384   1.419502  -3.448700   8.503440  -0.484781  -1.204424   1.067673  -1.486333  -2.988597  -0.223711   1.632808   0.070859   2.666744   0.623293   5.122508  14.408341  18.975912   0.327283  40.228179  -0.201092  -0.728377  -1.577384  -0.415724  -2.964134   4.798983   0.480611 -13.476408   6.239466 -11.640256   0.019266 -10.278763  -0.055405  -2.849135  -1.205180   5.404791   1.579204   1.590199  -7.099125  13.083407   0.007956  -0.019152 -12.982096  -6.197698   1.908295  -3.648635  -0.008066   0.013885 -17.025758   3.328862   2.102298  18.548779  -0.012214  -0.024075  -6.663585  -1.860741  -2.352085   0.248591   0.000181  -0.001158
 -2.381920   0.908160   3.957940   6.134146  -9.347772   1.746018  -3.390499   9.179712  -0.837437  -1.283137   1.367312  -1.699349  -3.224276  -0.257098   1.696670  -0.092981   3.200456   0.309362   5.219137  15.781169  19.918382   0.323865  43.432655  -0.224411  -0.766183  -1.011539  -0.342664  -3.290740   5.051057   0.955446 -14.698490   6.722628 -12.066772   0.013532 -10.935005  -0.051996  -3.097076  -1.367188   5.769413   2.323565   1.576418  -7.761371  12.932186   0.006001  -0.014976 -13.148861  -6.641313   1.969848  -3.858414  -0.007403   0.012165 -18.393941   3.494819   2.120354  19.788025  -0.011830  -0.020533  -7.319595  -2.008584  -2.540613   0.382011   0.000202  -0.001291
 -2.383795   0.906643   3.955915   6.098247  -9.849173   1.936937  -2.757544   9.704991  -1.200069  -1.240879   1.815404  -1.813648  -3.548722  -0.529610   1.773350  -0.485326   3.949044  -0.095508   5.027856  17.057835  20.706734   0.306390  46.599621  -0.231261  -0.964682  -0.675229   0.205491  -3.704270   5.325749   1.502938 -16.171787   7.333665 -12.297888   0.006959 -11.647374  -0.051793  -3.388967  -1.311610   5.896388   3.251682   1.814213  -8.016912  12.095113   0.005166  -0.010950 -10.889671  -6.339546   2.510004 -14.828213   0.019144   0.005020 -18.816083   3.527107   2.147047  20.636791  -0.011172  -0.019575  -7.543471  -1.957192  -2.432216   0.457964   0.000002  -0.001304
 -2.385635   0.905284   3.954492   5.844322 -10.409662   2.058479  -2.116871  10.211399  -1.510645  -1.146731   2.288126  -1.888834  -3.829352  -0.798095   1.850534  -0.907856   4.735037  -0.582448   4.789549  18.297122  21.368354   0.282489  49.581254  -0.230519  -1.159632  -0.244149   0.624890  -4.095616   5.577167   2.124875 -17.557313   7.894638 -12.423188   0.000799 -12.317314  -0.051149  -3.677551  -1.259716   6.104263   3.816767   1.939820  -8.109445  11.192682   0.005784  -0.006016  -8.868087  -6.207125   2.956587 -25.138588   0.040305   0.045613 -18.890044   3.573410   2.279793  21.401790  -0.010984  -0.018514  -7.793469  -1.817895  -2.266213  -0.236769   0.002258   0.000980
 -2.387109   0.906379   3.954683   5.507616 -10.800433   1.778171  -1.732825  10.636428  -1.425086  -1.131513   2.697385  -1.813467  -4.085198  -1.052044   1.930546  -1.271803   5.423730  -0.964450   4.572265  19.416112  22.005739   0.255998  52.344986  -0.216795  -1.335887   0.141771   0.972293  -4.461517   5.842807   2.601990 -18.843364   8.448218 -12.557740  -0.003724 -12.942925  -0.051228  -3.943557  -1.266373   6.382037   4.384490   2.001476  -7.866132  10.597312   0.005286  -0.003298  -8.275904  -6.124854   3.634639 -23.863397   0.026855   0.030034 -18.681994   3.542230   2.677174  22.161307  -0.010159  -0.016465  -8.001333  -1.730141  -2.119652  -0.438237   0.002275   0.001123
 -2.388142   0.908747   3.955939   5.160525 -11.042626   1.545149  -1.477478  11.014841  -1.402972  -1.199291   3.057295  -1.713408  -4.342772  -1.291006   2.016928  -1.587013   6.048487  -1.333776   4.370126  20.452833  22.620726   0.227699  54.930739  -0.199701  -1.514049   0.510389   1.336913  -4.807563   6.081106   3.122776 -20.048074   8.958101 -12.638897  -0.007548 -13.525834  -0.051178  -4.203600  -1.262402   6.647896   4.901106   2.112408  -7.701932  10.164238   0.004410  -0.002210  -6.966550  -5.951274   4.152495 -24.205875   0.022443   0.024773 -18.295765   3.497269   2.863223  23.013856  -0.008660  -0.014632  -8.173822  -1.711280  -2.002887  -0.260104   0.001654   0.000627
